<svg width="34" height="34" viewBox="0 0 34 34" fill="none" xmlns="http://www.w3.org/2000/svg">
<path d="M26.9167 2.83337H12.75C11.1874 2.83337 9.91667 4.10412 9.91667 5.66671V14.1667H7.08333C5.52075 14.1667 4.25 15.4375 4.25 17V29.75C4.25 30.1258 4.39926 30.4861 4.66493 30.7518C4.93061 31.0175 5.29094 31.1667 5.66667 31.1667H28.3333C28.7091 31.1667 29.0694 31.0175 29.3351 30.7518C29.6007 30.4861 29.75 30.1258 29.75 29.75V5.66671C29.75 4.10412 28.4792 2.83337 26.9167 2.83337ZM7.08333 17H15.5833V28.3334H7.08333V17ZM26.9167 28.3334H18.4167V17C18.4167 15.4375 17.1459 14.1667 15.5833 14.1667H12.75V5.66671H26.9167V28.3334Z" fill="white"/>
<path d="M15.5834 8.5H18.4167V11.3333H15.5834V8.5ZM21.25 8.5H24.0834V11.3333H21.25V8.5ZM21.25 14.2106H24.0834V17H21.25V14.2106ZM21.25 19.8333H24.0834V22.6667H21.25V19.8333ZM9.91669 19.8348H12.75V22.6681H9.91669V19.8348Z" fill="white"/>
</svg>
