<svg width="38" height="34" viewBox="0 0 38 34" fill="none" xmlns="http://www.w3.org/2000/svg">
<path d="M10.5209 25.7652L12.8125 22.9015L5.43519 17L12.8125 11.0985L10.5209 8.23484L1.35419 15.5682C1.13941 15.7399 0.966017 15.9578 0.84686 16.2057C0.727703 16.4535 0.665833 16.725 0.665833 17C0.665833 17.275 0.727703 17.5465 0.84686 17.7944C0.966017 18.0422 1.13941 18.2601 1.35419 18.4318L10.5209 25.7652ZM27.4792 8.23484L25.1875 11.0985L32.5649 17L25.1875 22.9015L27.4792 25.7652L36.6459 18.4318C36.8606 18.2601 37.034 18.0422 37.1532 17.7944C37.2723 17.5465 37.3342 17.275 37.3342 17C37.3342 16.725 37.2723 16.4535 37.1532 16.2057C37.034 15.9578 36.8606 15.7399 36.6459 15.5682L27.4792 8.23484ZM24.456 0.896008L17.1227 33.896L13.5422 33.1003L20.8755 0.100342L24.456 0.896008Z" fill="white"/>
</svg>
