<svg width="44" height="44" viewBox="0 0 44 44" fill="none" xmlns="http://www.w3.org/2000/svg">
<path d="M13.5208 30.7652L15.8125 27.9015L8.43517 22L15.8125 16.0985L13.5208 13.2348L4.35417 20.5682C4.13938 20.7399 3.96599 20.9578 3.84683 21.2057C3.72768 21.4535 3.66581 21.725 3.66581 22C3.66581 22.275 3.72768 22.5465 3.84683 22.7944C3.96599 23.0422 4.13938 23.2601 4.35417 23.4318L13.5208 30.7652ZM30.4792 13.2348L28.1875 16.0985L35.5648 22L28.1875 27.9015L30.4792 30.7652L39.6458 23.4318C39.8606 23.2601 40.034 23.0422 40.1532 22.7944C40.2723 22.5465 40.3342 22.275 40.3342 22C40.3342 21.725 40.2723 21.4535 40.1532 21.2057C40.034 20.9578 39.8606 20.7399 39.6458 20.5682L30.4792 13.2348ZM27.456 5.89601L20.1227 38.896L16.5422 38.1003L23.8755 5.10034L27.456 5.89601Z" fill="#2367FC"/>
</svg>
