<svg width="175" height="175" viewBox="0 0 175 175" fill="none" xmlns="http://www.w3.org/2000/svg">
<path d="M87.5 160.307C85.4948 160.307 83.6208 159.768 81.8708 158.834L64.0865 148.276C61.425 146.796 62.7594 146.256 63.5615 145.986C67.1781 144.783 67.849 144.521 71.5896 142.392C71.9979 142.122 72.5302 142.246 72.9385 142.516L86.574 150.682C87.1135 150.945 87.7844 150.945 88.1854 150.682L141.553 119.787C142.093 119.525 142.355 118.985 142.355 118.315V56.6416C142.355 55.9781 142.093 55.4385 141.553 55.176L88.1854 24.4125C87.6531 24.1427 86.9823 24.1427 86.574 24.4125L33.1917 55.1687C32.6594 55.4312 32.3896 56.1094 32.3896 56.6344V118.3C32.3896 118.832 32.6594 119.51 33.1917 119.773L47.775 128.209C55.6646 132.205 60.6229 127.517 60.6229 122.85V61.9937C60.6229 61.1916 61.2865 60.3823 62.2271 60.3823H69.0521C69.8396 60.3823 70.6562 61.0531 70.6562 61.9937V122.857C70.6562 133.423 64.9104 139.584 54.8771 139.584C51.8 139.584 49.3937 139.584 42.5687 136.23L28.5323 128.217C26.8221 127.222 25.4028 125.797 24.4162 124.082C23.4297 122.368 22.9104 120.424 22.9104 118.446V56.7729C22.9104 52.7625 25.0469 49.0146 28.5323 47.0093L81.8781 16.1146C83.6099 15.1884 85.5434 14.7039 87.5073 14.7039C89.4712 14.7039 91.4047 15.1884 93.1365 16.1146L146.49 47.0093C149.982 49.0073 152.111 52.7625 152.111 56.7729V118.446C152.111 122.449 149.975 126.197 146.49 128.217L93.1365 159.104C91.3792 159.906 89.374 160.307 87.5 160.307ZM103.95 117.899C80.5437 117.899 75.7312 107.195 75.7312 98.1094C75.7312 97.3073 76.4021 96.4979 77.3354 96.4979H84.2917C85.0938 96.4979 85.7573 97.0302 85.7573 97.8396C86.8292 104.92 89.8989 108.405 104.089 108.405C115.318 108.405 120.145 105.853 120.145 99.8375C120.145 96.3594 118.796 93.8219 101.281 92.0864C86.7052 90.6281 77.6125 87.3979 77.6125 75.7677C77.6125 64.9396 86.7052 58.5156 101.959 58.5156C119.073 58.5156 127.502 64.4146 128.567 77.2406C128.554 77.6735 128.412 78.0925 128.158 78.4437C127.889 78.7062 127.495 78.976 127.094 78.976H120.145C119.801 78.9687 119.47 78.8472 119.203 78.6306C118.937 78.4141 118.75 78.1148 118.672 77.7802C117.06 70.401 112.919 68.0093 101.959 68.0093C89.6437 68.0093 88.1708 72.2896 88.1708 75.4979C88.1708 79.3698 89.899 80.5729 106.502 82.7166C122.952 84.8531 130.71 87.9302 130.71 99.4437C130.565 111.22 120.947 117.899 103.95 117.899Z" fill="#08B14C"/>
</svg>
