<svg width="34" height="34" viewBox="0 0 34 34" fill="none" xmlns="http://www.w3.org/2000/svg">
<path fill-rule="evenodd" clip-rule="evenodd" d="M17.0368 2.83333C9.23241 2.83333 2.907 9.15875 2.907 16.9632C2.907 23.205 6.95441 28.5019 12.5701 30.3719C13.277 30.4994 13.532 30.0645 13.532 29.6905C13.532 29.3547 13.5207 28.4651 13.5164 27.2878C9.58516 28.1407 8.755 25.3923 8.755 25.3923C8.11466 23.7603 7.18675 23.3254 7.18675 23.3254C5.90466 22.4485 7.2845 22.4683 7.2845 22.4683C8.704 22.5675 9.44775 23.9247 9.44775 23.9247C10.7086 26.0837 12.7571 25.4603 13.5589 25.0991C13.6878 24.1853 14.0562 23.562 14.4585 23.2092C11.322 22.8537 8.024 21.641 8.024 16.2251C8.024 14.6852 8.57508 13.4215 9.47466 12.4355C9.33158 12.0771 8.84283 10.6392 9.61491 8.6955C9.61491 8.6955 10.8007 8.31441 13.4994 10.1419C14.652 9.82836 15.8409 9.66831 17.0354 9.66591C18.2299 9.66785 19.4189 9.82791 20.5714 10.1419C23.2716 8.31299 24.4559 8.6955 24.4559 8.6955C25.228 10.6392 24.7435 12.0771 24.5962 12.4355C25.5028 13.4215 26.0468 14.6837 26.0468 16.2251C26.0468 21.6552 22.746 22.848 19.5982 23.1979C20.1011 23.6342 20.5544 24.4956 20.5544 25.8131C20.5544 27.7029 20.5374 29.2272 20.5374 29.6905C20.5374 30.0687 20.7896 30.5079 21.5107 30.3691C27.1235 28.4962 31.1667 23.2036 31.1667 16.9632C31.1667 9.15875 24.8412 2.83333 17.0368 2.83333Z" fill="white"/>
</svg>
