<svg width="34" height="34" viewBox="0 0 34 34" fill="none" xmlns="http://www.w3.org/2000/svg">
<path d="M26.5342 7.66417L24.7208 9.08084L17 14.8183L9.27917 9.02417L7.46583 7.6075C7.03864 7.25411 6.51716 7.03381 5.96599 6.9739C5.41482 6.91399 4.85819 7.0171 4.36505 7.27046C3.8719 7.52381 3.46393 7.91628 3.19167 8.39924C2.9194 8.8822 2.79481 9.43443 2.83333 9.9875V26.4067C2.83333 26.9177 3.03632 27.4077 3.39764 27.769C3.75896 28.1303 4.24902 28.3333 4.76 28.3333H9.27917V17.3967L17 23.1908L24.7208 17.3967V28.3333H29.24C29.751 28.3333 30.241 28.1303 30.6024 27.769C30.9637 27.4077 31.1667 26.9177 31.1667 26.4067V9.9875C31.1933 9.4392 31.06 8.89498 30.7831 8.42098C30.5062 7.94699 30.0976 7.56365 29.6069 7.31755C29.1162 7.07146 28.5646 6.9732 28.0191 7.03474C27.4736 7.09627 26.9577 7.31494 26.5342 7.66417Z" fill="white"/>
</svg>
