<svg width="34" height="34" viewBox="0 0 34 34" fill="none" xmlns="http://www.w3.org/2000/svg">
<path d="M29.6367 3.37166C28.0462 3.01547 26.4215 2.83494 24.7917 2.83333C23.2524 2.7356 21.7091 2.94312 20.2503 3.44396C18.7916 3.94479 17.4462 4.72906 16.2917 5.75166C14.7711 7.27222 13.2647 8.78805 11.7725 10.2992C10.0583 10.115 5.99249 10.0158 3.27249 12.7642C3.00864 13.0296 2.86053 13.3887 2.86053 13.7629C2.86053 14.1372 3.00864 14.4962 3.27249 14.7617L19.2808 30.7983C19.5463 31.0622 19.9053 31.2103 20.2796 31.2103C20.6538 31.2103 21.0129 31.0622 21.2783 30.7983C24.0408 27.965 23.9558 23.97 23.7858 22.2983L28.3333 17.765C32.8525 13.2458 30.7983 4.76 30.7133 4.40583C30.6479 4.15031 30.5125 3.91813 30.3223 3.73542C30.132 3.55271 29.8946 3.42673 29.6367 3.37166ZM26.2933 15.7675L21.25 20.7825C21.0867 20.9474 20.9664 21.15 20.8997 21.3723C20.833 21.5946 20.8219 21.8299 20.8675 22.0575C21.1735 23.9527 20.9072 25.8962 20.1025 27.6392L6.40332 13.9117C8.17395 13.0968 10.1533 12.8493 12.07 13.2033C12.2968 13.2329 12.5273 13.207 12.7419 13.1281C12.9566 13.0492 13.1489 12.9194 13.3025 12.75C13.3025 12.75 15.2858 10.6958 18.275 7.70666C20.113 6.23066 22.4401 5.50218 24.7917 5.66666C25.8978 5.67215 27.0016 5.7669 28.0925 5.95C28.4325 7.97583 28.9708 13.09 26.2933 15.7675Z" fill="white"/>
<path d="M22.2842 14.5917C23.849 14.5917 25.1175 13.3232 25.1175 11.7584C25.1175 10.1936 23.849 8.92505 22.2842 8.92505C20.7194 8.92505 19.4508 10.1936 19.4508 11.7584C19.4508 13.3232 20.7194 14.5917 22.2842 14.5917Z" fill="white"/>
<path d="M7.08333 22.6666C4.25 24.0833 4.25 29.75 4.25 29.75C6.87235 29.6751 9.3828 28.671 11.3333 26.9166L7.08333 22.6666Z" fill="white"/>
</svg>
