<svg width="34" height="34" viewBox="0 0 34 34" fill="none" xmlns="http://www.w3.org/2000/svg">
<path d="M7.08333 31.1667H26.9167C28.4792 31.1667 29.75 29.896 29.75 28.3334V7.08337C29.75 5.52079 28.4792 4.25004 26.9167 4.25004H24.0833C24.0833 3.87432 23.9341 3.51398 23.6684 3.24831C23.4027 2.98263 23.0424 2.83337 22.6667 2.83337H11.3333C10.9576 2.83337 10.5973 2.98263 10.3316 3.24831C10.0659 3.51398 9.91667 3.87432 9.91667 4.25004H7.08333C5.52075 4.25004 4.25 5.52079 4.25 7.08337V28.3334C4.25 29.896 5.52075 31.1667 7.08333 31.1667ZM7.08333 7.08337H9.91667V9.91671H24.0833V7.08337H26.9167V28.3334H7.08333V7.08337Z" fill="white"/>
<path d="M15.5833 19.2468L13.0433 16.7067L11.0401 18.7099L15.5833 23.2532L22.9599 15.8766L20.9568 13.8734L15.5833 19.2468Z" fill="white"/>
</svg>
