<svg width="594" height="307" viewBox="0 0 594 307" fill="none" xmlns="http://www.w3.org/2000/svg">
<mask id="mask0_126_19" style="mask-type:luminance" maskUnits="userSpaceOnUse" x="0" y="0" width="594" height="306">
<path d="M0 0.729187H594V305.729H0V0.729187Z" fill="white"/>
</mask>
<g mask="url(#mask0_126_19)">
<path d="M411.677 247.099C412.557 249.188 413.245 250.875 413.99 252.536C419.703 265.302 419.615 264.729 433.958 262.479C459.609 258.458 485.385 255.208 511.104 251.62C529.016 249.125 547.005 247.047 564.786 243.807C570.141 242.833 575.557 243.641 580.865 241.927C583.781 240.99 587.307 243 587.542 246.385C587.766 249.641 584.839 251.849 581.698 252.266C555.615 255.74 529.49 258.88 503.422 262.438C478.552 265.828 453.734 269.594 428.901 273.219C424.563 273.849 422.297 275.182 424.635 280.453C426.76 285.245 425.917 292.51 429.229 295.281C432.109 297.698 438.969 295.094 444.063 295.177C481.932 295.792 519.807 296.589 557.682 297.167C567.146 297.313 576.625 296.922 586.094 296.672C589.714 296.578 593.495 297.078 593.745 301.214C593.99 305.193 590.672 305.578 586.969 306.224C576.953 307.974 566.984 307.031 557.026 306.865C521.557 306.266 486.078 304.229 450.635 304.839C407.438 305.578 364.25 304.76 321.073 305.464C294.896 305.891 268.724 305.771 242.568 306.214C175.719 307.354 108.917 306.979 42.1302 303.943C31.1302 303.443 20.1146 303.219 9.10936 302.755C5.47395 302.599 0.973946 304.109 1.20311 297.302C1.43228 290.594 6.06249 293.078 8.92186 293.146C56.5989 294.297 104.266 295.635 151.937 296.953C161.349 297.214 162.823 295.589 162.271 286.057C162.068 282.521 159.932 282.943 157.411 282.339C134.651 276.88 111.849 271.87 88.599 268.693C63.5156 265.266 38.6406 260.365 13.6302 256.401C9.60415 255.766 7.33853 253.75 7.21353 250.328C7.04686 245.552 11.026 245.391 14.4375 245.875C26.4219 247.578 38.3333 249.714 50.3542 251.276C67.6667 253.531 84.7708 257.344 102.026 260.057C119.531 262.807 136.687 267.094 154.01 270.646C158.021 271.469 164.068 275.932 167.031 267.943C169.25 261.958 171.672 259.099 161.604 256.281C127.766 246.802 93.3281 239.156 60.526 226.063C47.7812 220.974 34.5364 217.078 21.3802 213.109C17.1562 211.833 13.5937 210.297 15.3073 205.615C17.1927 200.458 21.3542 201.88 25.6875 203.328C52.5781 212.328 79.4531 221.385 106.557 229.688C126.922 235.927 147.74 240.677 168.099 246.927C173.854 248.693 175.422 244.823 177.432 242.313C179.828 239.318 176.328 238.547 174.047 236.818C156.63 223.625 136.969 214.073 118.88 201.99C99.5885 189.099 80.2448 176.245 60.3437 164.354C54.5885 160.917 49.0625 157.115 43.4844 153.469C40.7239 151.667 35.9687 148.719 39.5156 143.911C42.7396 139.536 46.3385 143.115 49.0312 144.813C75.1979 161.313 101.286 177.938 127.255 194.745C144.849 206.125 163.578 215.693 180.432 228.255C188.495 234.266 188.682 224.089 192.328 221.688C197.141 218.516 191.104 217.255 189.432 215.917C162.427 194.286 135.135 173.036 108.323 151.151C95.1823 140.427 81.3021 130.51 68.3854 119.401C65.5469 116.964 61.8229 114.333 64.8542 111.25C67.3698 108.682 72.0208 109.167 75.7239 112.146C93.6146 126.547 111.672 140.74 129.661 155.021C149.531 170.797 169.375 186.609 189.281 202.344C191.625 204.198 194.26 205.682 196.807 207.276C202.687 210.969 206.812 207 210.042 203.271C213.474 199.302 207.911 198.01 206.26 195.927C191.318 176.995 175.026 159.208 160.026 140.271C144.255 120.359 129.12 99.9636 113.328 80.0782C112.24 78.7084 111.922 76.5938 110.656 75.5209C107.104 72.5052 106.823 69.3229 110.536 66.8438C113.828 64.6407 116.792 66.4219 119.083 69.474C131.823 86.4427 144.453 103.5 157.469 120.255C168.453 134.406 179.781 148.297 191.203 162.099C199.375 171.979 208.151 181.359 216.292 191.266C222.802 199.182 226.292 190.391 231.234 189.234C238.141 187.62 235.01 183.63 233.453 180.63C222.802 160.125 211.979 139.703 201.078 119.328C193.844 105.807 188.292 91.5365 182.115 77.5417C177.573 67.2448 172.672 57.1042 167.969 46.875C167.104 44.9896 166.448 43.0104 165.661 41.0886C164.307 37.7604 162.177 33.6615 166.411 31.6354C171.109 29.3906 173.005 33.5313 175.01 37.2344C186.016 57.5886 193.844 79.3646 203.599 100.281C214.51 123.667 227.979 145.667 239.604 168.656C240.839 171.089 242.417 173.5 242.958 176.104C244.286 182.464 248.5 180.964 252.792 180.516C258.594 179.917 258.667 175.932 257.911 171.964C254.948 156.307 251.802 140.682 248.536 125.083C241.151 89.849 233.599 54.6511 226.297 19.3959C225.599 16.0313 222.594 10.9479 228.432 9.58336C233.964 8.28648 235.312 13.0209 236.255 17.4792C246.526 66.0938 256.849 114.698 267.146 163.302C267.333 164.198 267.318 165.13 267.432 166.036C268.687 176.286 275.63 179.938 285.172 175.599C286.865 174.833 287.828 173.958 287.448 172.349C283.927 157.448 284.984 142.052 284.354 127.068C283.703 111.76 281.984 96.2604 283.318 80.7604C284.635 65.4427 282.328 50.1198 282.026 34.8386C281.849 25.8959 280.516 16.9479 281.104 7.9844C281.286 5.22398 280.177 1.70836 285.349 2.06252C289.411 2.34898 291.083 3.80732 291.854 7.94273C294.448 21.8334 292.724 35.8646 293.448 49.8125C295.172 82.9427 294.745 116.177 295.885 149.344C296.104 155.651 297.047 162.005 296.745 168.375C296.401 175.589 301.573 175.88 306.687 177.161C312.411 178.599 312.104 174.917 313.448 171.401C317.542 160.734 318.021 149.38 320.062 138.37C324.068 116.786 327.479 95.0782 331.12 73.4271C334.036 56.1094 338.266 38.9219 339.13 21.2448C339.37 16.224 341.667 11.4948 341.687 6.21357C341.698 3.61982 344.776 1.10419 348.375 1.9219C352.036 2.76044 352.917 5.34898 352.354 8.81252C350.375 21.0261 348.563 33.2709 346.495 45.4688C343.005 65.9948 339.391 86.5052 335.792 107.016C332.141 127.839 328.391 148.651 324.802 169.49C323.99 174.214 321.521 179.443 329.109 181.724C334.047 183.208 337.182 182.328 338.76 177.521C346.797 153.094 357.76 129.833 367.229 105.984C376.76 81.9792 387.417 58.4219 397.615 34.6823C399.682 29.8698 401.682 24.875 403.271 20.0573C404.969 14.8906 407.38 13.0729 411.479 14.4844C416.885 16.349 414.583 21.0365 413.219 24.5209C408.625 36.2292 403.865 47.8802 398.901 59.4375C381.682 99.5157 364.297 139.526 348.792 180.313C347.76 183.031 342.281 186.359 349.057 189.495C354.698 192.104 358.609 193.828 362.766 186.448C371.182 171.495 380.573 157.057 390.12 142.781C411.479 110.813 433.177 79.0729 454.766 47.2552C455.438 46.2604 456.677 45.5938 457.167 44.5469C459.469 39.6354 463.734 41.3959 466.318 42.9063C470.042 45.0781 467.104 48.3021 465.484 50.625C454.271 66.7032 442.667 82.5156 431.703 98.7604C410.063 130.813 388.88 163.172 368.656 196.151C367.625 197.833 366.177 199.375 368.943 200.281C372.219 201.349 374.234 206.521 379.198 202.536C384.682 198.146 388.943 192.531 393.359 187.453C414.089 163.63 436.802 141.719 458.193 118.552C471.068 104.604 484.979 91.6146 498.255 78.0313C500.917 75.3125 503.427 73.2552 506.464 76.6146C509.219 79.6563 507.698 82.6979 505.135 85.3907C496.766 94.2032 488.828 103.464 480.078 111.875C451.286 139.542 424.99 169.594 397.151 198.172C395.047 200.339 393.359 202.906 391.328 205.151C385.214 211.922 385.781 215.557 393.354 220.411C395.172 221.578 396.047 221.031 397.182 219.99C422.875 196.453 454.292 181.026 481.771 160.12C498.135 147.672 516.349 137.958 531.99 124.516C534.193 122.625 538.885 119.656 541.771 123.359C544.865 127.333 541.729 130.38 538.182 132.87C503.057 157.547 468.495 183.021 432.219 206.047C422.807 212.021 414.24 219.328 405.276 226.021C402.453 228.13 400.266 230.365 402.969 234.099C405.328 237.359 408.214 237.938 411.667 236.031C431.089 225.297 452.594 219.672 472.839 210.964C498.583 199.88 525.625 192.568 552.01 183.349C556.391 181.818 560.828 180.411 565.083 178.578C569.563 176.651 574.813 175.552 576.672 180.521C578.74 186.042 572.63 187.12 568.875 188.391C547.74 195.557 526.333 201.969 505.38 209.609C477.266 219.865 449.323 230.609 421.911 242.677C418.599 244.135 415.266 245.547 411.672 247.094L411.677 247.099ZM200.51 296.578L200.526 297.219C210.906 296.948 221.281 296.5 231.661 296.443C290.943 296.109 350.229 295.734 409.51 295.776C416.099 295.781 416.255 293.49 415.245 288.438C402.448 224.615 355.536 193.406 299.214 186.865C271.375 183.63 246.833 192.146 223.49 208.854C194.156 229.854 178.76 257.411 173.573 292.047C172.943 296.255 174.521 297.401 178.547 297.167C185.854 296.74 193.187 296.75 200.51 296.578Z" fill="#FCB933"/>
</g>
<mask id="mask1_126_19" style="mask-type:luminance" maskUnits="userSpaceOnUse" x="157" y="170" width="273" height="137">
<path d="M157.776 170.099H429.776V306.099H157.776V170.099Z" fill="white"/>
</mask>
<g mask="url(#mask1_126_19)">
<path d="M293.776 442.099C218.641 442.099 157.776 380.813 157.776 306.099C157.776 231.38 218.641 170.099 293.776 170.099C368.912 170.099 429.776 230.964 429.776 306.099C429.776 381.234 368.49 442.099 293.776 442.099ZM293.776 178.495C223.255 178.495 166.172 235.578 166.172 306.099C166.172 376.615 223.255 433.703 293.776 433.703C364.292 433.703 421.38 376.615 421.38 306.099C421.38 235.578 363.875 178.495 293.776 178.495Z" fill="white"/>
</g>
<mask id="mask2_126_19" style="mask-type:luminance" maskUnits="userSpaceOnUse" x="166" y="177" width="255" height="128">
<path d="M166.781 177.964H420.781V304.964H166.781V177.964Z" fill="white"/>
</mask>
<g mask="url(#mask2_126_19)">
<path d="M166.896 304.964C166.896 234.813 223.745 177.964 293.891 177.964C364.036 177.964 420.667 234.813 420.667 304.964H166.896Z" fill="#FCB933"/>
</g>
</svg>
